<?xml version="1.0" encoding="utf-8"?>
<!-- Generator: Adobe Illustrator 25.2.1, SVG Export Plug-In . SVG Version: 6.00 Build 0)  -->
<svg version="1.1" id="Layer_1" xmlns="http://www.w3.org/2000/svg" xmlns:xlink="http://www.w3.org/1999/xlink" x="0px" y="0px"
	 viewBox="0 0 2500 2500" style="enable-background:new 0 0 2500 2500;" xml:space="preserve">
<style type="text/css">
	.st0{fill:#FFFFFF;}
</style>
<path class="st0" d="M1245.8,29.2C573.6,29.2,28.5,574.3,28.5,1246.5c0,508.8,312.3,944.8,755.7,1126.7
	c-51.3-397.1,93.6-699.1,161.6-1019.1c-118.1-189.6,14.6-572.2,263.9-477.8c306.9,116-266,705.6,118.8,779.2
	c401.4,77.1,565.3-663.9,316.7-904.9c-360.4-347.2-1047.2-7.6-962.5,489.6c10.4,61.8,111.8,159,111.8,159s-4.9,59-31.2,168.1
	c-230.6-48.6-327.1-221.5-318.1-452.1c13.9-377.8,355.6-641.7,698.6-678.5h0c433.3-46.5,840.3,151.4,897.2,540.3
	c63.2,438.9-195.8,913.9-659.7,879.9c-125.7-9-178.5-68.7-277.1-125.7c-52.3,261.4-115.6,512.4-296.6,651.3
	c136,52.5,283.8,81.3,438.2,81.3c672.2,0,1217.4-545.1,1217.4-1217.4S1918.1,29.2,1245.8,29.2z"/>
</svg>
