<svg id="Layer_1" data-name="Layer 1" xmlns="http://www.w3.org/2000/svg" xmlns:xlink="http://www.w3.org/1999/xlink" viewBox="0 0 583.33 563.95"><defs><style>.cls-1{fill:url(#New_Gradient_Swatch);}.cls-2{fill:#231f20;}.cls-3{fill:#fff;}</style><linearGradient id="New_Gradient_Swatch" y1="281.97" x2="583.33" y2="281.97" gradientUnits="userSpaceOnUse"><stop offset="0" stop-color="#ee2a7b"/><stop offset="0.52" stop-color="#c699c6"/><stop offset="1" stop-color="#97c93d"/></linearGradient></defs><path class="cls-1" d="M547.67,125.13c9.84,19.43-4.27,38.63-13.11,49.34L515.74,196c-17.87,20.43-39.86,43.73-37.05,61,3.15,19.42,28.48,33.52,67.5,15.92,32.22-14.52,53.76,19.29,20.37,48.15-12.83,11.09-30.11,24.48-41.86,33.31-16.77,12.61-49.65,37-77.72,61.42a252,252,0,0,0-59,75.87L368,531c-24.68,47.32-63.91,38.51-82.21,6C270.47,509.92,234,500,205.29,515.12l-20.88,11c-29.24,15.45-64-10.81-53-40.3,15.26-41.06-9.4-52.33-38.2-55.29l-67.09-6.91c-14.88-1.53-27.1-13.53-26-29,1.23-18,18.83-23.75,34.65-34.75,18.58-12.91,15.56-26.83,6.78-41.67-15.21-25.69-20.11-39.84-7.67-59.8C49.59,233.1,89,245.07,112.39,221.72c35.85-35.85,1.15-56.63,13.53-108.28,6.86-28.61,36.14-46.37,61.7-28.89,29,19.85,68.91,18.69,96.53-2.8l91.2-71c26-20.2,65.22-13,63.24,29.64l-4.13,60.51c-1,14.68,5.93,38,27.62,39.85,12.67,1.06,23.31-4.09,32.55-11.72C530,99.86,545.48,120.8,547.67,125.13Z"/><circle class="cls-2" cx="291.66" cy="291.49" r="141.85"/><path class="cls-3" d="M291.66,444.16C207.48,444.16,139,375.67,139,291.49s68.49-152.67,152.67-152.67,152.67,68.49,152.67,152.67S375.85,444.16,291.66,444.16Zm0-283.69c-72.24,0-131,58.77-131,131s58.78,131,131,131,131-58.77,131-131S363.91,160.47,291.66,160.47Z"/><path class="cls-3" d="M257.16,288.21c-11.33,0-12.66-12.5-13.16-17.21a202.41,202.41,0,0,1,0-36.18c.5-4.7,1.83-17.2,13.16-17.2s12.65,12.5,13.16,17.2a204.93,204.93,0,0,1,0,36.18C269.81,275.71,268.48,288.21,257.16,288.21Z"/><path class="cls-3" d="M326.17,288.21c-11.33,0-12.66-12.5-13.16-17.21a204.93,204.93,0,0,1,0-36.18c.5-4.7,1.83-17.2,13.16-17.2s12.66,12.5,13.16,17.2a202.41,202.41,0,0,1,0,36.18C338.83,275.71,337.5,288.21,326.17,288.21Z"/><path class="cls-3" d="M291.66,392.11A80.78,80.78,0,0,1,211,311.42a9,9,0,1,1,18,0,62.65,62.65,0,1,0,125.3,0,9,9,0,1,1,18,0A80.78,80.78,0,0,1,291.66,392.11Z"/></svg>